# xmcd
#
# Track frame offsets: 
#        150
#        12732
#        30982
#        45997
#        59285
#        73877
#        87335
#        102622
#        120030
#        136500
#        158592
#        170292
#
# Disc length: 2472 seconds
#
# Revision: 1
# Processed by: cddbd v1.5.2PL0 Copyright (c) Steve Scherf et al.
# Submitted via: ExactAudioCopy v0.95b4
#
DISCID=8d09a60c
DTITLE=Dr.Feelgood - Malpractice
DYEAR=1975
DGENRE=Blues
TTITLE0=I Can Tell
TTITLE1=Going Back Home
TTITLE2=Back In The Night
TTITLE3=Another Man
TTITLE4=Rolling And Tumbling
TTITLE5=Don't Let Your Daddy Know
TTITLE6=Watch Your Step
TTITLE7=Don't You Just Know It
TTITLE8=Riot In Cell Block #9
TTITLE9=Because Your Mine
TTITLE10=You Shouldn't Call The Docter(If You Can't Afford The Bills)
TTITLE11=Route 66*
EXTD=
EXTT0=
EXTT1=
EXTT2=
EXTT3=
EXTT4=
EXTT5=
EXTT6=
EXTT7=
EXTT8=
EXTT9=
EXTT10=
EXTT11=
PLAYORDER=
